# xmcd CD database file
#
# Track frame offsets:
#	150
#	21375
#	36597
#	58117
#
# Disc length: 974 seconds
#
# Revision: 0
# Processed by: cddbd v1.5.1PL0 Copyright (c) Steve Scherf et al.
# Submitted via: CDex 1.51
#
DISCID=3603cc04
DTITLE=MANISH - 君の空になりたい
DYEAR=1996
DGENRE=JPop
TTITLE0=君の空になりたい
TTITLE1=It's so Natural
TTITLE2=君の空になりたい (ORIGINAL KARAOKE)
TTITLE3=It's so Natural (ORIGINAL KARAOKE)
EXTD=YEAR: 1996
EXTT0=
EXTT1=
EXTT2=
EXTT3=
PLAYORDER=
